# Blender v2.79 (sub 0) OBJ File: 'fence_lowpoly.blend'
# www.blender.org
mtllib fence_lowpoly.mtl
o fence_Cube
v -0.085632 0.016853 0.115188
v -0.093637 2.016853 0.129145
v -0.085632 0.016853 -0.085402
v -0.114015 1.972273 -0.093637
v 0.085632 0.016853 0.085862
v 0.093637 2.055065 0.161383
v 0.085632 0.016853 -0.111037
v 0.093637 2.016853 -0.023404
v -0.076865 0.668022 0.089729
v -0.120141 1.350186 0.128522
v -0.091894 1.350186 -0.083513
v -0.076865 0.699963 -0.101113
v 0.120141 1.350186 -0.055265
v 0.128095 0.699963 -0.101113
v 0.091894 1.350186 0.156770
v 0.128095 0.666130 0.101035
v 0.095892 0.016853 -3.108444
v 0.106875 2.034199 -3.077007
v 0.095892 0.016853 -2.907855
v 0.125569 2.044819 -2.854225
v -0.075371 0.016853 -3.079118
v -0.084250 2.035958 -3.109245
v -0.075371 0.016853 -2.882220
v -0.086775 2.048939 -2.924458
v 0.087125 0.668022 -3.073907
v 0.130402 1.350186 -3.076384
v 0.102154 1.350186 -2.864349
v 0.087125 0.699963 -2.883065
v -0.109881 1.350186 -2.892596
v -0.117835 0.699963 -2.883065
v -0.081634 1.350186 -3.104632
v -0.117835 0.666130 -3.085212
v 0.107839 1.490750 0.507151
v 0.150762 1.770678 0.460864
v 0.149885 1.483006 -3.501078
v 0.108659 1.759761 -3.450908
v 0.210735 1.481176 0.507151
v 0.253659 1.761103 0.460864
v 0.252838 1.492092 -3.499431
v 0.211612 1.768848 -3.449261
v 0.233750 1.461384 -0.774951
v 0.207307 1.707272 -0.765320
v 0.321625 1.458859 -0.835860
v 0.295181 1.730017 -0.850466
v 0.109004 0.913523 0.445355
v 0.149509 1.188596 0.521848
v 0.149253 1.126746 -3.480283
v 0.109253 1.406646 -3.461894
v 0.211988 0.905113 0.442323
v 0.252493 1.180185 0.518816
v 0.252245 1.135606 -3.480106
v 0.212245 1.415506 -3.461718
v 0.113988 0.977965 -1.371996
v 0.085797 1.240248 -1.399245
v 0.207673 0.972660 -1.326396
v 0.179482 1.260813 -1.321070
v 0.109004 0.522564 0.457102
v 0.149509 0.800974 0.515808
v 0.149253 0.541742 -3.476004
v 0.109253 0.822106 -3.475620
v 0.211988 0.514017 0.454615
v 0.252493 0.792427 0.513321
v 0.252245 0.550597 -3.476397
v 0.212245 0.830961 -3.476013
v 0.152661 0.505638 -0.700145
v 0.128481 0.751103 -0.667387
v 0.233016 0.524394 -0.667115
v 0.208836 0.791247 -0.661024
v 0.118355 0.756327 -2.071311
v 0.243142 0.569101 -2.071543
v 0.150578 0.558725 -2.088871
v 0.210919 0.774741 -2.068127
vt 0.625581 0.098238
vt 0.929106 0.401762
vt 0.625581 0.401762
vt 0.929106 0.098238
vt 0.625581 0.401762
vt 0.625581 0.098238
vt 0.929106 0.098238
vt 0.625581 0.401762
vt 0.625581 0.098238
vt 0.625581 0.098238
vt 0.929106 0.401762
vt 0.625581 0.401762
vt 0.625581 0.098238
vt 0.929106 0.401762
vt 0.625581 0.401762
vt 0.083041 0.171733
vt 0.162929 0.234610
vt 0.083041 0.251155
vt 0.625581 0.098238
vt 0.929106 0.401762
vt 0.929106 0.098238
vt 0.625581 0.401762
vt 0.625581 0.098238
vt 0.625581 0.098238
vt 0.929106 0.401762
vt 0.625581 0.401762
vt 0.625581 0.098238
vt 0.929106 0.401762
vt 0.625581 0.401762
vt 0.929106 0.098238
vt 0.625581 0.401762
vt 0.625581 0.098238
vt 0.929106 0.401762
vt 0.625581 0.401762
vt 0.929106 0.098238
vt 0.625581 0.401762
vt 0.625581 0.098238
vt 0.929106 0.098238
vt 0.625581 0.401762
vt 0.625581 0.098238
vt 0.929106 0.098238
vt 0.625581 0.401762
vt 0.625581 0.098238
vt 0.625581 0.098238
vt 0.929106 0.401762
vt 0.625581 0.401762
vt 0.625581 0.098238
vt 0.929106 0.401762
vt 0.625581 0.401762
vt 0.625581 0.098238
vt 0.929106 0.401762
vt 0.625581 0.401762
vt 0.625581 0.098238
vt 0.929106 0.401762
vt 0.625581 0.401762
vt 0.261276 0.216940
vt 0.180638 0.151351
vt 0.261276 0.138965
vt 0.625581 0.098238
vt 0.929106 0.401762
vt 0.929106 0.098238
vt 0.625581 0.401762
vt 0.625581 0.098238
vt 0.625581 0.098238
vt 0.929106 0.401762
vt 0.625581 0.401762
vt 0.625581 0.098238
vt 0.929106 0.401762
vt 0.625581 0.401762
vt 0.929106 0.098238
vt 0.625581 0.401762
vt 0.625581 0.098238
vt 0.929106 0.401762
vt 0.625581 0.401762
vt 0.929106 0.098238
vt 0.625581 0.401762
vt 0.625581 0.098238
vt 0.929106 0.098238
vt 0.625581 0.401762
vt 0.625581 0.098238
vt 0.625581 0.098238
vt 0.929106 0.401762
vt 0.625581 0.401762
vt 0.126479 0.253721
vt 0.083041 0.370931
vt 0.083041 0.251282
vt 0.625581 0.098238
vt 0.929106 0.401762
vt 0.625581 0.401762
vt 0.258424 0.247779
vt 0.215002 0.366012
vt 0.215002 0.245232
vt 0.929106 0.401762
vt 0.625581 0.401762
vt 0.929106 0.098238
vt 0.625581 0.401762
vt 0.625581 0.098238
vt 0.929106 0.098238
vt 0.625581 0.401762
vt 0.625581 0.098238
vt 0.625581 0.098238
vt 0.929106 0.401762
vt 0.625581 0.401762
vt 0.929106 0.098238
vt 0.625581 0.401762
vt 0.625581 0.098238
vt 0.929106 0.098238
vt 0.625581 0.098238
vt 0.929106 0.098238
vt 0.625581 0.401762
vt 0.625581 0.098238
vt 0.170047 0.253713
vt 0.126606 0.370540
vt 0.126606 0.251282
vt 0.929106 0.098238
vt 0.625581 0.401762
vt 0.625581 0.098238
vt 0.304848 0.141338
vt 0.261403 0.260339
vt 0.261403 0.138965
vt 0.929106 0.098238
vt 0.625581 0.401762
vt 0.625581 0.098238
vt 0.929106 0.401762
vt 0.625581 0.401762
vt 0.625581 0.098238
vt 0.929106 0.401762
vt 0.625581 0.401762
vt 0.929106 0.098238
vt 0.625581 0.401762
vt 0.625581 0.098238
vt 0.625581 0.098238
vt 0.929106 0.401762
vt 0.625581 0.401762
vt 0.625581 0.098238
vt 0.625581 0.098238
vt 0.929106 0.401762
vt 0.625581 0.401762
vt 0.304845 0.265273
vt 0.261403 0.382039
vt 0.261403 0.262839
vt 0.929106 0.098238
vt 0.625581 0.401762
vt 0.625581 0.098238
vt 0.214875 0.247642
vt 0.171434 0.366199
vt 0.171435 0.245232
vt 0.929106 0.098238
vt 0.625581 0.401762
vt 0.625581 0.098238
vt 0.625581 0.098238
vt 0.929106 0.401762
vt 0.625581 0.401762
vt 0.625581 0.098238
vt 0.929106 0.401762
vt 0.625581 0.401762
vt 0.929106 0.098238
vt 0.625581 0.401762
vt 0.929106 0.098238
vt 0.625581 0.401762
vt 0.625581 0.098238
vt 0.625581 0.098238
vt 0.625581 0.098238
vt 0.929106 0.401762
vt 0.625581 0.401762
vt 0.929106 0.098238
vt 0.625581 0.401762
vt 0.625581 0.098238
vt 0.625581 0.098238
vt 0.929106 0.401762
vt 0.625581 0.401762
vt 0.929106 0.098238
vt 0.929106 0.401762
vt 0.929106 0.401762
vt 0.929106 0.098238
vt 0.929106 0.098238
vt 0.171307 0.138965
vt 0.929106 0.098238
vt 0.929106 0.401762
vt 0.929106 0.098238
vt 0.929106 0.098238
vt 0.929106 0.401762
vt 0.929106 0.098238
vt 0.929106 0.401762
vt 0.929106 0.401762
vt 0.929106 0.401762
vt 0.929106 0.098238
vt 0.929106 0.098238
vt 0.929106 0.098238
vt 0.929106 0.098238
vt 0.171434 0.245105
vt 0.929106 0.098238
vt 0.929106 0.401762
vt 0.929106 0.098238
vt 0.929106 0.098238
vt 0.929106 0.401762
vt 0.929106 0.098238
vt 0.929106 0.401762
vt 0.929106 0.401762
vt 0.126479 0.373370
vt 0.929106 0.098238
vt 0.258424 0.368559
vt 0.929106 0.098238
vt 0.929106 0.401762
vt 0.929106 0.401762
vt 0.929106 0.098238
vt 0.929106 0.401762
vt 0.929106 0.401762
vt 0.170048 0.372971
vt 0.929106 0.401762
vt 0.304848 0.262712
vt 0.929106 0.401762
vt 0.929106 0.098238
vt 0.929106 0.401762
vt 0.929106 0.098238
vt 0.929106 0.098238
vt 0.929106 0.098238
vt 0.304845 0.384473
vt 0.929106 0.401762
vt 0.214875 0.368609
vt 0.929106 0.401762
vt 0.929106 0.098238
vt 0.929106 0.401762
vt 0.929106 0.401762
vt 0.929106 0.098238
vt 0.929106 0.098238
vt 0.929106 0.401762
vt 0.929106 0.098238
vn -0.9905 -0.0374 -0.1320
vn 0.1320 -0.0114 -0.9912
vn 0.9907 0.0331 0.1320
vn -0.1321 0.0043 0.9912
vn 0.0000 -1.0000 0.0000
vn -0.1628 0.9662 -0.1998
vn 0.1687 0.0362 0.9850
vn -0.0557 -0.0840 0.9949
vn 0.9979 -0.0653 0.0000
vn 0.9986 0.0521 0.0087
vn -0.1480 -0.0208 -0.9888
vn 0.0000 0.0703 -0.9975
vn -0.9999 0.0135 0.0000
vn -0.9980 -0.0627 -0.0105
vn 0.9907 0.0342 0.1320
vn -0.1319 0.0495 0.9900
vn -0.9912 -0.0047 -0.1321
vn 0.1321 0.0036 -0.9912
vn 0.0209 0.9973 -0.0698
vn -0.1686 0.0499 -0.9844
vn 0.0553 -0.0313 -0.9980
vn -0.9979 -0.0653 0.0000
vn -0.9986 0.0526 -0.0088
vn 0.1479 -0.0340 0.9884
vn 0.0000 0.0147 0.9999
vn 0.9999 0.0135 -0.0000
vn 0.9979 -0.0633 0.0106
vn -0.9879 -0.1524 0.0292
vn 0.0000 0.1784 -0.9840
vn 0.9870 -0.1375 0.0838
vn 0.0150 0.1609 0.9869
vn -0.0926 -0.9956 0.0137
vn -0.2790 0.9598 -0.0316
vn -0.0882 0.9959 0.0177
vn -0.0335 -0.9994 -0.0069
vn 0.9882 0.1515 -0.0236
vn -0.9858 0.1346 -0.0999
vn -0.9937 -0.1093 -0.0243
vn -0.0039 0.0650 -0.9979
vn 0.9952 0.0973 0.0013
vn 0.0064 -0.2688 0.9632
vn -0.0393 -0.9986 -0.0355
vn 0.0825 0.9958 0.0404
vn -0.2657 0.9618 0.0654
vn 0.0856 -0.9940 -0.0687
vn 0.9949 0.0968 0.0279
vn -0.9942 -0.1075 -0.0065
vn -0.9900 -0.1412 0.0027
vn -0.0039 0.0008 -1.0000
vn 0.9958 0.0898 0.0195
vn 0.0064 -0.2072 0.9783
vn 0.2185 -0.9756 0.0225
vn 0.0826 0.9966 -0.0041
vn -0.4462 0.8949 -0.0112
vn 0.1184 -0.9922 -0.0381
vn 0.9879 0.1546 0.0120
vn -0.9950 -0.0932 -0.0362
vn 0.9879 0.1547 0.0044
vn 0.0857 -0.9962 0.0121
vn -0.1962 0.9798 0.0389
vn -0.9870 -0.1605 -0.0047
vn -0.9958 0.0395 0.0832
vn 0.3087 0.0576 -0.9494
vn 1.0000 -0.0025 0.0005
vn -0.1684 -0.0060 0.9857
vn -0.1475 0.9723 -0.1811
vn -0.0552 -0.0197 0.9983
vn -0.1318 -0.0646 0.9892
vn 0.9980 -0.0619 -0.0104
vn 0.9912 0.0028 0.1321
vn 0.0000 0.0145 -0.9999
vn 0.1320 0.0299 -0.9908
vn -0.9999 0.0129 0.0022
vn -0.9911 -0.0193 -0.1320
vn 0.9961 -0.0324 -0.0820
vn -0.3141 -0.0032 0.9494
vn -0.9994 0.0323 -0.0159
vn 0.1663 -0.0060 -0.9861
vn 0.0361 0.9981 -0.0506
vn 0.0551 -0.0058 -0.9985
vn 0.1320 -0.0120 -0.9912
vn -0.9980 -0.0620 0.0104
vn -0.9912 0.0102 -0.1320
vn 0.0000 0.0012 1.0000
vn -0.1320 -0.0255 0.9909
vn 0.9999 0.0129 -0.0022
vn 0.9909 -0.0267 0.1320
vn -0.9935 -0.1082 0.0344
vn 0.9947 0.0986 0.0292
vn -0.0183 -0.9997 0.0151
vn 0.0925 0.9946 -0.0472
vn -0.2256 0.9738 0.0273
vn 0.0881 -0.9960 -0.0147
vn 0.9950 0.0954 -0.0306
vn -0.9936 -0.1053 -0.0404
vn -0.9899 -0.1400 -0.0225
vn 0.9901 -0.1332 -0.0451
vn -0.0824 -0.9959 -0.0378
vn -0.2413 0.9698 0.0341
vn -0.0856 0.9932 0.0791
vn -0.0195 -0.9969 -0.0758
vn 0.9899 0.1398 0.0253
vn -0.9901 0.1356 0.0365
vn -0.9870 -0.1608 -0.0011
vn 0.9900 -0.1363 -0.0367
vn -0.0830 -0.9965 -0.0108
vn -0.4448 0.8951 -0.0298
vn -0.1953 0.9807 0.0051
vn 0.2386 -0.9707 -0.0292
vn 0.9959 0.0902 0.0004
vn -0.9899 0.1416 0.0116
vn 0.9900 0.1412 0.0066
vn 0.1088 -0.9940 0.0138
vn -0.0854 0.9952 0.0472
vn -0.9951 -0.0989 0.0068
usemtl Material
s off
f 10/1/1 4/2/1 11/3/1
f 4/4/2 13/5/2 11/6/2
f 8/7/3 15/8/3 13/9/3
f 15/10/4 2/11/4 10/12/4
f 3/13/5 5/14/5 1/15/5
f 8/16/6 2/17/6 6/18/6
f 5/19/7 9/20/7 1/15/7
f 15/21/8 9/22/8 16/23/8
f 7/24/9 16/25/9 5/26/9
f 14/27/10 15/28/10 16/29/10
f 12/30/11 7/31/11 3/13/11
f 12/32/12 13/33/12 14/34/12
f 9/35/13 3/36/13 1/37/13
f 10/38/14 12/39/14 9/40/14
f 18/41/15 27/42/15 26/43/15
f 27/44/16 24/45/16 29/46/16
f 29/47/17 22/48/17 31/49/17
f 31/50/18 18/51/18 26/52/18
f 19/53/5 21/54/5 17/55/5
f 24/56/19 18/57/19 22/58/19
f 21/59/20 25/60/20 17/55/20
f 31/61/21 25/62/21 32/63/21
f 23/64/22 32/65/22 21/66/22
f 30/67/23 31/68/23 32/69/23
f 28/70/24 23/71/24 19/53/24
f 28/72/25 29/73/25 30/74/25
f 25/75/26 19/76/26 17/77/26
f 26/78/27 28/79/27 25/80/27
f 41/81/28 36/82/28 35/83/28
f 35/84/29 40/85/29 39/86/29
f 43/87/30 38/88/30 37/89/30
f 37/90/31 34/91/31 33/92/31
f 41/81/32 37/93/32 33/94/32
f 42/95/33 38/96/33 44/97/33
f 36/98/34 44/99/34 40/100/34
f 35/101/35 43/102/35 41/103/35
f 40/104/36 43/105/36 39/106/36
f 34/107/37 41/103/37 33/108/37
f 54/109/38 47/110/38 53/111/38
f 47/112/39 52/113/39 51/114/39
f 56/115/40 49/116/40 55/117/40
f 49/118/41 46/119/41 45/120/41
f 55/121/42 45/122/42 53/111/42
f 56/123/43 46/124/43 50/125/43
f 52/126/44 54/127/44 56/128/44
f 51/129/45 53/130/45 47/131/45
f 51/132/46 56/133/46 55/134/46
f 45/135/47 54/127/47 53/130/47
f 71/136/48 60/137/48 59/138/48
f 59/139/49 64/140/49 63/141/49
f 68/142/50 61/143/50 67/144/50
f 61/145/51 58/146/51 57/147/51
f 67/148/52 57/149/52 65/150/52
f 68/151/53 58/152/53 62/153/53
f 72/154/54 66/155/54 68/156/54
f 70/157/55 65/158/55 71/136/55
f 72/159/56 67/160/56 70/161/56
f 57/162/57 66/155/57 65/158/57
f 63/163/58 72/164/58 70/165/58
f 63/166/59 71/167/59 59/168/59
f 64/169/60 69/170/60 72/171/60
f 65/150/61 69/170/61 71/167/61
f 10/1/62 2/172/62 4/2/62
f 4/4/63 8/173/63 13/5/63
f 8/7/64 6/174/64 15/8/64
f 15/10/65 6/175/65 2/11/65
f 3/13/5 7/176/5 5/14/5
f 8/16/66 4/177/66 2/17/66
f 5/19/67 16/178/67 9/20/67
f 15/21/68 10/179/68 9/22/68
f 7/24/69 14/180/69 16/25/69
f 14/27/70 13/181/70 15/28/70
f 12/30/71 14/182/71 7/31/71
f 12/32/72 11/183/72 13/33/72
f 9/35/73 12/184/73 3/36/73
f 10/38/74 11/185/74 12/39/74
f 18/41/75 20/186/75 27/42/75
f 27/44/76 20/187/76 24/45/76
f 29/47/77 24/188/77 22/48/77
f 31/50/78 22/189/78 18/51/78
f 19/53/5 23/190/5 21/54/5
f 24/56/79 20/191/79 18/57/79
f 21/59/80 32/192/80 25/60/80
f 31/61/81 26/193/81 25/62/81
f 23/64/82 30/194/82 32/65/82
f 30/67/83 29/195/83 31/68/83
f 28/70/84 30/196/84 23/71/84
f 28/72/85 27/197/85 29/73/85
f 25/75/86 28/198/86 19/76/86
f 26/78/87 27/199/87 28/79/87
f 41/81/88 42/95/88 36/82/88
f 35/84/29 36/200/29 40/85/29
f 43/87/89 44/201/89 38/88/89
f 37/90/31 38/202/31 34/91/31
f 41/81/90 43/203/90 37/93/90
f 42/95/91 34/204/91 38/96/91
f 36/98/92 42/205/92 44/99/92
f 35/101/93 39/206/93 43/102/93
f 40/104/94 44/207/94 43/105/94
f 34/107/95 42/205/95 41/103/95
f 54/109/96 48/208/96 47/110/96
f 47/112/39 48/209/39 52/113/39
f 56/115/97 50/210/97 49/116/97
f 49/118/41 50/211/41 46/119/41
f 55/121/98 49/212/98 45/122/98
f 56/123/99 54/109/99 46/124/99
f 52/126/100 48/213/100 54/127/100
f 51/129/101 55/214/101 53/130/101
f 51/132/102 52/215/102 56/133/102
f 45/135/103 46/216/103 54/127/103
f 71/136/104 69/217/104 60/137/104
f 59/139/49 60/218/49 64/140/49
f 68/142/105 62/219/105 61/143/105
f 61/145/51 62/220/51 58/146/51
f 67/148/106 61/221/106 57/149/106
f 68/151/107 66/222/107 58/152/107
f 72/154/108 69/217/108 66/155/108
f 70/157/109 67/223/109 65/158/109
f 72/159/110 68/224/110 67/160/110
f 57/162/111 58/225/111 66/155/111
f 63/163/112 64/226/112 72/164/112
f 63/166/113 70/227/113 71/167/113
f 64/169/114 60/228/114 69/170/114
f 65/150/115 66/222/115 69/170/115
