# Blender 3.4.1
# www.blender.org
mtllib 1.mtl
o mesh_id189
v -16.470715 12.895683 7.500004
v 16.470730 22.599358 7.499996
v 0.829927 25.408321 7.500000
v -1.851364 -24.003839 7.500000
v 15.002396 -25.408323 7.499997
v 1.979044 7.405441 7.500000
v -4.021918 0.638401 7.500001
v 0.829924 25.408321 -7.500000
v 16.470726 22.599358 -7.500003
v -16.470718 12.895683 -7.499996
v 15.002392 -25.408323 -7.500003
v -1.851368 -24.003839 -7.500000
v -4.021922 0.638401 -7.499999
v 1.979040 7.405441 -7.500000
v 0.829927 25.408321 7.500000
v 16.470726 22.599358 -7.500003
v 0.829924 25.408321 -7.500000
v 16.470730 22.599358 7.499996
v 16.470730 22.599358 7.499996
v 15.002392 -25.408323 -7.500003
v 16.470726 22.599358 -7.500003
v 15.002396 -25.408323 7.499997
v 15.002396 -25.408323 7.499997
v -1.851368 -24.003839 -7.500000
v 15.002392 -25.408323 -7.500003
v -1.851364 -24.003839 7.500000
v -1.851364 -24.003839 7.500000
v 1.979040 7.405441 -7.500000
v -1.851368 -24.003839 -7.500000
v 1.979044 7.405441 7.500000
v 1.979044 7.405441 7.500000
v -4.021922 0.638401 -7.499999
v 1.979040 7.405441 -7.500000
v -4.021918 0.638401 7.500001
v -4.021918 0.638401 7.500001
v -16.470718 12.895683 -7.499996
v -4.021922 0.638401 -7.499999
v -16.470715 12.895683 7.500004
v -16.470715 12.895683 7.500004
v -16.470718 12.895683 -7.499996
vn -0.0000 -0.0000 1.0000
vn -0.0000 -0.0000 -1.0000
vn -0.2224 0.9750 -0.0000
vn 0.1768 0.9843 -0.0000
vn 0.9995 -0.0306 -0.0000
vn -0.0830 -0.9965 -0.0000
vn -0.9926 0.1211 -0.0000
vn 0.7482 -0.6635 -0.0000
vn -0.7016 -0.7126 -0.0000
vn -0.5860 0.8103 -0.0000
s 0
usemtl 113
f 1//1 2//1 3//1
f 2//1 4//1 5//1
f 6//1 1//1 7//1
f 6//1 2//1 1//1
f 6//1 4//1 2//1
f 8//2 9//2 10//2
f 11//2 12//2 9//2
f 13//2 10//2 14//2
f 10//2 9//2 14//2
f 9//2 12//2 14//2
s 1
f 15//3 16//4 17//3
f 15//3 18//4 16//4
s 0
f 19//5 20//5 21//5
f 19//5 22//5 20//5
f 23//6 24//6 25//6
f 23//6 26//6 24//6
f 27//7 28//7 29//7
f 27//7 30//7 28//7
f 31//8 32//8 33//8
f 31//8 34//8 32//8
f 35//9 36//9 37//9
f 35//9 38//9 36//9
s 1
f 39//10 17//3 40//10
f 39//10 15//3 17//3
