# Blender 3.4.1
# www.blender.org
mtllib 10.mtl
o Object_6.008
v 73.352173 44.815674 -0.000017
v 63.712330 31.409273 -0.000015
v 63.712326 19.151989 -0.000015
v 55.732330 33.069118 -0.000013
v 80.757607 28.536469 -0.000019
v 57.200645 14.491671 -0.000014
v 73.735199 4.660304 -0.000018
v 39.133926 9.065272 -0.000009
v 55.668480 -0.893774 -0.000013
v 53.178734 49.986721 -0.000013
v 37.091049 34.856640 -0.000009
v 51.774246 20.492636 -0.000012
v 0.574569 37.665607 -0.000000
v 33.516014 47.369286 -0.000008
v 17.875212 50.178249 -0.000004
v 15.193920 0.766077 -0.000004
v 32.047680 -0.638408 -0.000008
v 19.024328 32.175365 -0.000005
v 13.023366 25.408323 -0.000003
v 63.712322 19.151989 -15.000019
v 63.712326 31.409273 -15.000019
v 73.352173 44.815674 -15.000021
v 55.732327 33.069118 -15.000017
v 80.757607 28.536469 -15.000023
v 57.200642 14.491671 -15.000017
v 73.735199 4.660304 -15.000021
v 55.668476 -0.893774 -15.000017
v 39.133923 9.065272 -15.000013
v 37.091045 34.856640 -15.000012
v 53.178730 49.986721 -15.000016
v 51.774242 20.492636 -15.000016
v 17.875208 50.178249 -15.000008
v 33.516010 47.369286 -15.000011
v 0.574565 37.665607 -15.000004
v 32.047676 -0.638408 -15.000011
v 15.193916 0.766077 -15.000008
v 13.023362 25.408323 -15.000007
v 19.024324 32.175365 -15.000009
v 73.352173 44.815674 -0.000017
v 80.757607 28.536469 -15.000023
v 73.352173 44.815674 -15.000021
v 80.757607 28.536469 -0.000019
v 73.735199 4.660304 -15.000021
v 73.735199 4.660304 -0.000018
v 55.668476 -0.893774 -15.000017
v 55.668480 -0.893774 -0.000013
v 39.133923 9.065272 -15.000013
v 39.133926 9.065272 -0.000009
v 37.091045 34.856640 -15.000012
v 37.091049 34.856640 -0.000009
v 53.178730 49.986721 -15.000016
v 53.178734 49.986721 -0.000013
v 51.774246 20.492636 -0.000012
v 57.200642 14.491671 -15.000017
v 51.774242 20.492636 -15.000016
v 57.200645 14.491671 -0.000014
v 57.200645 14.491671 -0.000014
v 63.712322 19.151989 -15.000019
v 57.200642 14.491671 -15.000017
v 63.712326 19.151989 -0.000015
v 63.712326 31.409273 -15.000019
v 63.712330 31.409273 -0.000015
v 63.712330 31.409273 -0.000015
v 55.732327 33.069118 -15.000017
v 63.712326 31.409273 -15.000019
v 55.732330 33.069118 -0.000013
v 55.732330 33.069118 -0.000013
v 55.732327 33.069118 -15.000017
v 17.875212 50.178249 -0.000004
v 33.516010 47.369286 -15.000011
v 17.875208 50.178249 -15.000008
v 33.516014 47.369286 -0.000008
v 33.516014 47.369286 -0.000008
v 32.047676 -0.638408 -15.000011
v 33.516010 47.369286 -15.000011
v 32.047680 -0.638408 -0.000008
v 32.047680 -0.638408 -0.000008
v 15.193916 0.766077 -15.000008
v 32.047676 -0.638408 -15.000011
v 15.193920 0.766077 -0.000004
v 15.193920 0.766077 -0.000004
v 19.024324 32.175365 -15.000009
v 15.193916 0.766077 -15.000008
v 19.024328 32.175365 -0.000005
v 19.024328 32.175365 -0.000005
v 13.023362 25.408323 -15.000007
v 19.024324 32.175365 -15.000009
v 13.023366 25.408323 -0.000003
v 13.023366 25.408323 -0.000003
v 0.574565 37.665607 -15.000004
v 13.023362 25.408323 -15.000007
v 0.574569 37.665607 -0.000000
v 0.574569 37.665607 -0.000000
v 0.574565 37.665607 -15.000004
vn -0.0000 -0.0000 1.0000
vn -0.0000 -0.0000 -1.0000
vn 0.6422 0.7665 -0.0000
vn 0.9975 0.0704 -0.0000
vn 0.7114 -0.7028 -0.0000
vn -0.1216 -0.9926 -0.0000
vn -0.8505 -0.5260 -0.0000
vn -0.9329 0.3602 -0.0000
vn -0.2492 0.9684 -0.0000
vn 0.9769 0.2135 -0.0000
vn 0.7417 0.6707 -0.0000
vn -0.5820 0.8132 -0.0000
vn -0.8894 0.4572 -0.0000
vn -1.0000 -0.0000 -0.0000
vn -0.2036 -0.9790 -0.0000
vn 0.9539 -0.3002 -0.0000
vn -0.2224 0.9750 -0.0000
vn 0.1768 0.9843 -0.0000
vn 0.9995 -0.0306 -0.0000
vn -0.0830 -0.9965 -0.0000
vn -0.9926 0.1211 -0.0000
vn 0.7482 -0.6635 -0.0000
vn -0.7016 -0.7126 -0.0000
vn -0.5860 0.8103 -0.0000
vt 0.000000 1.000000
vt 0.000000 1.000000
vt 0.000000 1.000000
vt 0.000000 1.000000
vt 0.000000 1.000000
vt 0.000000 1.000000
vt 0.000000 1.000000
vt 0.000000 1.000000
vt 0.000000 1.000000
vt 0.000000 1.000000
vt 0.000000 1.000000
vt 0.000000 1.000000
vt 0.000000 1.000000
vt 0.000000 1.000000
vt 0.000000 1.000000
vt 0.000000 1.000000
vt 0.000000 1.000000
vt 0.000000 1.000000
vt 0.000000 1.000000
vt 0.000000 1.000000
vt 0.000000 1.000000
vt 0.000000 1.000000
vt 0.000000 1.000000
vt 0.000000 1.000000
vt 0.000000 1.000000
vt 0.000000 1.000000
vt 0.000000 1.000000
vt 0.000000 1.000000
vt 0.000000 1.000000
vt 0.000000 1.000000
vt 0.000000 1.000000
vt 0.000000 1.000000
vt 0.000000 1.000000
vt 0.000000 1.000000
vt 0.000000 1.000000
vt 0.000000 1.000000
vt 0.000000 1.000000
vt 0.000000 1.000000
vt 0.000000 1.000000
vt 0.000000 1.000000
vt 0.000000 1.000000
vt 0.000000 1.000000
vt 0.000000 1.000000
vt 0.000000 1.000000
vt 0.000000 1.000000
vt 0.000000 1.000000
vt 0.000000 1.000000
vt 0.000000 1.000000
vt 0.000000 1.000000
vt 0.000000 1.000000
vt 0.000000 1.000000
vt 0.000000 1.000000
vt 0.000000 1.000000
vt 0.000000 1.000000
vt 0.000000 1.000000
vt 0.000000 1.000000
vt 0.000000 1.000000
vt 0.000000 1.000000
vt 0.000000 1.000000
vt 0.000000 1.000000
vt 0.000000 1.000000
vt 0.000000 1.000000
vt 0.000000 1.000000
vt 0.000000 1.000000
vt 0.000000 1.000000
vt 0.000000 1.000000
vt 0.000000 1.000000
vt 0.000000 1.000000
vt 0.000000 1.000000
vt 0.000000 1.000000
vt 0.000000 1.000000
vt 0.000000 1.000000
vt 0.000000 1.000000
vt 0.000000 1.000000
vt 0.000000 1.000000
vt 0.000000 1.000000
vt 0.000000 1.000000
vt 0.000000 1.000000
vt 0.000000 1.000000
vt 0.000000 1.000000
vt 0.000000 1.000000
vt 0.000000 1.000000
vt 0.000000 1.000000
vt 0.000000 1.000000
vt 0.000000 1.000000
vt 0.000000 1.000000
vt 0.000000 1.000000
vt 0.000000 1.000000
vt 0.000000 1.000000
vt 0.000000 1.000000
vt 0.000000 1.000000
vt 0.000000 1.000000
vt 0.000000 1.000000
vt 0.000000 1.000000
s 0
usemtl material.008
f 1/1/1 2/2/1 3/3/1
f 1/1/1 4/4/1 2/2/1
f 3/3/1 5/5/1 1/1/1
f 6/6/1 5/5/1 3/3/1
f 6/6/1 7/7/1 5/5/1
f 7/7/1 8/8/1 9/9/1
f 8/8/1 10/10/1 11/11/1
f 10/10/1 4/4/1 1/1/1
f 6/6/1 8/8/1 7/7/1
f 12/12/1 8/8/1 6/6/1
f 8/8/1 4/4/1 10/10/1
f 8/8/1 12/12/1 4/4/1
f 13/13/1 14/14/1 15/15/1
f 14/14/1 16/16/1 17/17/1
f 18/18/1 13/13/1 19/19/1
f 18/18/1 14/14/1 13/13/1
f 18/18/1 16/16/1 14/14/1
f 20/20/2 21/21/2 22/22/2
f 21/21/2 23/23/2 22/22/2
f 22/22/2 24/24/2 20/20/2
f 20/20/2 24/24/2 25/25/2
f 24/24/2 26/26/2 25/25/2
f 27/27/2 28/28/2 26/26/2
f 29/29/2 30/30/2 28/28/2
f 22/22/2 23/23/2 30/30/2
f 26/26/2 28/28/2 25/25/2
f 25/25/2 28/28/2 31/31/2
f 30/30/2 23/23/2 28/28/2
f 23/23/2 31/31/2 28/28/2
f 32/32/2 33/33/2 34/34/2
f 35/35/2 36/36/2 33/33/2
f 37/37/2 34/34/2 38/38/2
f 34/34/2 33/33/2 38/38/2
f 33/33/2 36/36/2 38/38/2
s 1
f 39/39/3 40/40/4 41/41/3
f 39/39/3 42/42/4 40/40/4
f 42/42/4 43/43/5 40/40/4
f 42/42/4 44/44/5 43/43/5
f 44/44/5 45/45/6 43/43/5
f 44/44/5 46/46/6 45/45/6
f 46/46/6 47/47/7 45/45/6
f 46/46/6 48/48/7 47/47/7
f 48/48/7 49/49/8 47/47/7
f 48/48/7 50/50/8 49/49/8
f 50/50/8 51/51/9 49/49/8
f 50/50/8 52/52/9 51/51/9
f 52/52/9 41/41/3 51/51/9
f 52/52/9 39/39/3 41/41/3
f 53/53/10 54/54/11 55/55/10
f 53/53/10 56/56/11 54/54/11
f 57/57/12 58/58/13 59/59/12
f 57/57/12 60/60/13 58/58/13
f 60/60/13 61/61/14 58/58/13
f 60/60/13 62/62/14 61/61/14
s 0
f 63/63/15 64/64/15 65/65/15
f 63/63/15 66/66/15 64/64/15
s 1
f 67/67/16 55/55/10 68/68/16
f 67/67/16 53/53/10 55/55/10
f 69/69/17 70/70/18 71/71/17
f 69/69/17 72/72/18 70/70/18
s 0
f 73/73/19 74/74/19 75/75/19
f 73/73/19 76/76/19 74/74/19
f 77/77/20 78/78/20 79/79/20
f 77/77/20 80/80/20 78/78/20
f 81/81/21 82/82/21 83/83/21
f 81/81/21 84/84/21 82/82/21
f 85/85/22 86/86/22 87/87/22
f 85/85/22 88/88/22 86/86/22
f 89/89/23 90/90/23 91/91/23
f 89/89/23 92/92/23 90/90/23
s 1
f 93/93/24 71/71/17 94/94/24
f 93/93/24 69/69/17 71/71/17
