# Blender 3.4.1
# www.blender.org
mtllib 3.mtl
o Object_6.001
v -21.609833 11.682724 7.500007
v 14.651291 20.748001 7.499999
v -6.032869 25.408325 7.500003
v 14.140568 -0.446886 7.499999
v 21.673687 5.617916 7.499997
v 20.652245 -10.852810 7.499997
v 20.652245 -10.725129 7.499997
v -10.310161 -23.556965 7.500004
v 10.246319 -25.408331 7.500000
v -8.714155 -2.808960 7.500004
v -21.673677 -11.555039 7.500007
v 4.436884 -9.703686 7.500001
v 4.883766 5.745600 7.500000
v -1.883276 -1.851362 7.500002
v 0.798008 12.129601 7.500001
v -7.146529 3.418985 7.500003
v -4.124767 6.674828 7.500003
v -8.267274 2.362080 7.500004
v -2.010960 -14.108644 7.500002
v -1.755598 -14.108644 7.500002
v -6.032873 25.408325 -7.500000
v 14.651287 20.748001 -7.500005
v -21.609837 11.682724 -7.499997
v 21.673683 5.617916 -7.500007
v 14.140564 -0.446886 -7.500005
v 20.652241 -10.725129 -7.500007
v 20.652241 -10.852810 -7.500007
v 10.246315 -25.408331 -7.500004
v -10.310164 -23.556965 -7.500000
v -21.673681 -11.555039 -7.499997
v -8.714159 -2.808960 -7.500000
v -1.883280 -1.851362 -7.500001
v 4.883762 5.745600 -7.500003
v 4.436880 -9.703686 -7.500003
v -4.124771 6.674828 -7.500001
v -7.146533 3.418985 -7.500000
v 0.798004 12.129601 -7.500002
v -8.267278 2.362080 -7.500000
v -2.010963 -14.108644 -7.500001
v -1.755602 -14.108644 -7.500001
v -6.032869 25.408325 7.500003
v 14.651287 20.748001 -7.500005
v -6.032873 25.408325 -7.500000
v 14.651291 20.748001 7.499999
v 21.673683 5.617916 -7.500007
v 21.673687 5.617916 7.499997
v 21.673687 5.617916 7.499997
v 14.140564 -0.446886 -7.500005
v 21.673683 5.617916 -7.500007
v 14.140568 -0.446886 7.499999
v 14.140568 -0.446886 7.499999
v 20.652241 -10.725129 -7.500007
v 14.140564 -0.446886 -7.500005
v 20.652245 -10.725129 7.499997
v 20.652241 -10.852810 -7.500007
v 20.652245 -10.852810 7.499997
v 10.246315 -25.408331 -7.500004
v 10.246319 -25.408331 7.500000
v -10.310164 -23.556965 -7.500000
v -10.310161 -23.556965 7.500004
v -21.673681 -11.555039 -7.499997
v -21.673677 -11.555039 7.500007
v -21.673677 -11.555039 7.500007
v -8.714159 -2.808960 -7.500000
v -21.673681 -11.555039 -7.499997
v -8.714155 -2.808960 7.500004
v -8.714155 -2.808960 7.500004
v -2.010963 -14.108644 -7.500001
v -8.714159 -2.808960 -7.500000
v -2.010960 -14.108644 7.500002
v -1.755602 -14.108644 -7.500001
v -1.755598 -14.108644 7.500002
v 4.436880 -9.703686 -7.500003
v 4.436884 -9.703686 7.500001
v 4.436884 -9.703686 7.500001
v -1.883280 -1.851362 -7.500001
v 4.436880 -9.703686 -7.500003
v -1.883276 -1.851362 7.500002
v -1.883276 -1.851362 7.500002
v 4.883762 5.745600 -7.500003
v -1.883280 -1.851362 -7.500001
v 4.883766 5.745600 7.500000
v 4.883766 5.745600 7.500000
v 0.798004 12.129601 -7.500002
v 4.883762 5.745600 -7.500003
v 0.798008 12.129601 7.500001
v 0.798008 12.129601 7.500001
v -4.124771 6.674828 -7.500001
v 0.798004 12.129601 -7.500002
v -4.124767 6.674828 7.500003
v -7.146533 3.418985 -7.500000
v -7.146529 3.418985 7.500003
v -8.267278 2.362080 -7.500000
v -8.267274 2.362080 7.500004
v -8.267274 2.362080 7.500004
v -21.609837 11.682724 -7.499997
v -8.267278 2.362080 -7.500000
v -21.609833 11.682724 7.500007
v -21.609833 11.682724 7.500007
v -21.609837 11.682724 -7.499997
vn -0.0000 -0.0000 1.0000
vn -0.0000 -0.0000 -1.0000
vn -0.2477 0.9688 -0.0000
vn 0.6280 0.7782 -0.0000
vn 0.9071 0.4210 -0.0000
vn 0.6271 -0.7789 -0.0000
vn 0.8447 0.5352 -0.0000
vn 0.9604 0.2786 -0.0000
vn 0.9522 -0.3054 -0.0000
vn 0.4170 -0.9089 -0.0000
vn -0.4361 -0.8999 -0.0000
vn -0.7262 -0.6875 -0.0000
vn -0.5594 0.8289 -0.0000
vn 0.8601 0.5102 -0.0000
vn 0.4949 0.8690 -0.0000
vn -0.3042 0.9526 -0.0000
vn -0.5796 0.8149 -0.0000
vn -0.7790 -0.6270 -0.0000
vn -0.7467 0.6651 -0.0000
vn -0.8423 -0.5391 -0.0000
vn 0.7424 -0.6700 -0.0000
vn 0.7377 -0.6751 -0.0000
vn 0.7099 -0.7043 -0.0000
vn 0.6861 -0.7275 -0.0000
vn -0.5727 -0.8198 -0.0000
vn -0.6611 0.7503 -0.0000
vt 0.000000 1.000000
vt 0.000000 1.000000
vt 0.000000 1.000000
vt 0.000000 1.000000
vt 0.000000 1.000000
vt 0.000000 1.000000
vt 0.000000 1.000000
vt 0.000000 1.000000
vt 0.000000 1.000000
vt 0.000000 1.000000
vt 0.000000 1.000000
vt 0.000000 1.000000
vt 0.000000 1.000000
vt 0.000000 1.000000
vt 0.000000 1.000000
vt 0.000000 1.000000
vt 0.000000 1.000000
vt 0.000000 1.000000
vt 0.000000 1.000000
vt 0.000000 1.000000
vt 0.000000 1.000000
vt 0.000000 1.000000
vt 0.000000 1.000000
vt 0.000000 1.000000
vt 0.000000 1.000000
vt 0.000000 1.000000
vt 0.000000 1.000000
vt 0.000000 1.000000
vt 0.000000 1.000000
vt 0.000000 1.000000
vt 0.000000 1.000000
vt 0.000000 1.000000
vt 0.000000 1.000000
vt 0.000000 1.000000
vt 0.000000 1.000000
vt 0.000000 1.000000
vt 0.000000 1.000000
vt 0.000000 1.000000
vt 0.000000 1.000000
vt 0.000000 1.000000
vt 0.000000 1.000000
vt 0.000000 1.000000
vt 0.000000 1.000000
vt 0.000000 1.000000
vt 0.000000 1.000000
vt 0.000000 1.000000
vt 0.000000 1.000000
vt 0.000000 1.000000
vt 0.000000 1.000000
vt 0.000000 1.000000
vt 0.000000 1.000000
vt 0.000000 1.000000
vt 0.000000 1.000000
vt 0.000000 1.000000
vt 0.000000 1.000000
vt 0.000000 1.000000
vt 0.000000 1.000000
vt 0.000000 1.000000
vt 0.000000 1.000000
vt 0.000000 1.000000
vt 0.000000 1.000000
vt 0.000000 1.000000
vt 0.000000 1.000000
vt 0.000000 1.000000
vt 0.000000 1.000000
vt 0.000000 1.000000
vt 0.000000 1.000000
vt 0.000000 1.000000
vt 0.000000 1.000000
vt 0.000000 1.000000
vt 0.000000 1.000000
vt 0.000000 1.000000
vt 0.000000 1.000000
vt 0.000000 1.000000
vt 0.000000 1.000000
vt 0.000000 1.000000
vt 0.000000 1.000000
vt 0.000000 1.000000
vt 0.000000 1.000000
vt 0.000000 1.000000
vt 0.000000 1.000000
vt 0.000000 1.000000
vt 0.000000 1.000000
vt 0.000000 1.000000
vt 0.000000 1.000000
vt 0.000000 1.000000
vt 0.000000 1.000000
vt 0.000000 1.000000
vt 0.000000 1.000000
vt 0.000000 1.000000
vt 0.000000 1.000000
vt 0.000000 1.000000
vt 0.000000 1.000000
vt 0.000000 1.000000
vt 0.000000 1.000000
vt 0.000000 1.000000
vt 0.000000 1.000000
vt 0.000000 1.000000
vt 0.000000 1.000000
vt 0.000000 1.000000
s 0
usemtl material.001
f 1/1/1 2/2/1 3/3/1
f 2/2/1 4/4/1 5/5/1
f 4/4/1 6/6/1 7/7/1
f 6/6/1 8/8/1 9/9/1
f 8/8/1 10/10/1 11/11/1
f 12/12/1 13/13/1 14/14/1
f 15/15/1 16/16/1 17/17/1
f 15/15/1 18/18/1 16/16/1
f 15/15/1 1/1/1 18/18/1
f 15/15/1 2/2/1 1/1/1
f 15/15/1 4/4/1 2/2/1
f 8/8/1 19/19/1 10/10/1
f 8/8/1 20/20/1 19/19/1
f 8/8/1 12/12/1 20/20/1
f 13/13/1 4/4/1 15/15/1
f 13/13/1 6/6/1 4/4/1
f 6/6/1 12/12/1 8/8/1
f 6/6/1 13/13/1 12/12/1
f 21/21/2 22/22/2 23/23/2
f 24/24/2 25/25/2 22/22/2
f 26/26/2 27/27/2 25/25/2
f 28/28/2 29/29/2 27/27/2
f 30/30/2 31/31/2 29/29/2
f 32/32/2 33/33/2 34/34/2
f 35/35/2 36/36/2 37/37/2
f 36/36/2 38/38/2 37/37/2
f 38/38/2 23/23/2 37/37/2
f 23/23/2 22/22/2 37/37/2
f 22/22/2 25/25/2 37/37/2
f 31/31/2 39/39/2 29/29/2
f 39/39/2 40/40/2 29/29/2
f 40/40/2 34/34/2 29/29/2
f 37/37/2 25/25/2 33/33/2
f 25/25/2 27/27/2 33/33/2
f 29/29/2 34/34/2 27/27/2
f 34/34/2 33/33/2 27/27/2
s 1
f 41/41/3 42/42/4 43/43/3
f 41/41/3 44/44/4 42/42/4
f 44/44/4 45/45/5 42/42/4
f 44/44/4 46/46/5 45/45/5
s 0
f 47/47/6 48/48/6 49/49/6
f 47/47/6 50/50/6 48/48/6
s 1
f 51/51/7 52/52/8 53/53/7
f 51/51/7 54/54/8 52/52/8
f 54/54/8 55/55/9 52/52/8
f 54/54/8 56/56/9 55/55/9
f 56/56/9 57/57/10 55/55/9
f 56/56/9 58/58/10 57/57/10
f 58/58/10 59/59/11 57/57/10
f 58/58/10 60/60/11 59/59/11
f 60/60/11 61/61/12 59/59/11
f 60/60/11 62/62/12 61/61/12
s 0
f 63/63/13 64/64/13 65/65/13
f 63/63/13 66/66/13 64/64/13
s 1
f 67/67/14 68/68/15 69/69/14
f 67/67/14 70/70/15 68/68/15
f 70/70/15 71/71/16 68/68/15
f 70/70/15 72/72/16 71/71/16
f 72/72/16 73/73/17 71/71/16
f 72/72/16 74/74/17 73/73/17
s 0
f 75/75/18 76/76/18 77/77/18
f 75/75/18 78/78/18 76/76/18
s 1
f 79/79/19 80/80/19 81/81/19
f 79/79/19 82/82/19 80/80/19
s 0
f 83/83/20 84/84/20 85/85/20
f 83/83/20 86/86/20 84/84/20
s 1
f 87/87/21 88/88/22 89/89/21
f 87/87/21 90/90/22 88/88/22
f 90/90/22 91/91/23 88/88/22
f 90/90/22 92/92/23 91/91/23
f 92/92/23 93/93/24 91/91/23
f 92/92/23 94/94/24 93/93/24
s 0
f 95/95/25 96/96/25 97/97/25
f 95/95/25 98/98/25 96/96/25
s 1
f 99/99/26 43/43/3 100/100/26
f 99/99/26 41/41/3 43/43/3
