# Blender 3.4.1
# www.blender.org
mtllib 4.mtl
o Object_6.002
v -23.173920 -4.692236 7.500008
v -2.872791 25.567928 7.500003
v -3.191992 25.567928 7.500003
v -7.596958 -4.500719 7.500004
v 11.299688 16.949524 7.499999
v 1.915203 -3.606962 7.500001
v 15.130087 4.564556 7.499999
v 3.383524 5.202961 7.500001
v 14.938562 -2.266325 7.499999
v 22.280161 -14.715131 7.499997
v 23.173922 -1.755608 7.499997
v 14.236322 -14.906648 7.499999
v -0.957603 -24.674168 7.500002
v 13.789438 -25.567932 7.499999
v 0.063839 -16.247286 7.500002
v -18.194401 -17.268723 7.500006
v -3.191996 25.567928 -7.500001
v -2.872795 25.567928 -7.500001
v -23.173922 -4.692236 -7.499996
v 11.299685 16.949524 -7.500005
v -7.596962 -4.500719 -7.500000
v 3.383520 5.202961 -7.500003
v 15.130083 4.564556 -7.500006
v 1.915199 -3.606962 -7.500002
v 14.938559 -2.266325 -7.500006
v 23.173918 -1.755608 -7.500008
v 22.280157 -14.715131 -7.500008
v 13.789434 -25.567932 -7.500005
v -0.957607 -24.674168 -7.500002
v 14.236319 -14.906648 -7.500005
v 0.063835 -16.247286 -7.500002
v -18.194405 -17.268723 -7.499997
v -3.191992 25.567928 7.500003
v -2.872795 25.567928 -7.500001
v -3.191996 25.567928 -7.500001
v -2.872791 25.567928 7.500003
v 11.299685 16.949524 -7.500005
v 11.299688 16.949524 7.499999
v 11.299688 16.949524 7.499999
v -7.596962 -4.500719 -7.500000
v 11.299685 16.949524 -7.500005
v -7.596958 -4.500719 7.500004
v -7.596958 -4.500719 7.500004
v 1.915199 -3.606962 -7.500002
v -7.596962 -4.500719 -7.500000
v 1.915203 -3.606962 7.500001
v 1.915203 -3.606962 7.500001
v 3.383520 5.202961 -7.500003
v 1.915199 -3.606962 -7.500002
v 3.383524 5.202961 7.500001
v 3.383524 5.202961 7.500001
v 15.130083 4.564556 -7.500006
v 3.383520 5.202961 -7.500003
v 15.130087 4.564556 7.499999
v 15.130087 4.564556 7.499999
v 14.938559 -2.266325 -7.500006
v 15.130083 4.564556 -7.500006
v 14.938562 -2.266325 7.499999
v 14.938562 -2.266325 7.499999
v 23.173918 -1.755608 -7.500008
v 14.938559 -2.266325 -7.500006
v 23.173922 -1.755608 7.499997
v 23.173922 -1.755608 7.499997
v 22.280157 -14.715131 -7.500008
v 23.173918 -1.755608 -7.500008
v 22.280161 -14.715131 7.499997
v 22.280161 -14.715131 7.499997
v 14.236319 -14.906648 -7.500005
v 22.280157 -14.715131 -7.500008
v 14.236322 -14.906648 7.499999
v 14.236322 -14.906648 7.499999
v 13.789434 -25.567932 -7.500005
v 14.236319 -14.906648 -7.500005
v 13.789438 -25.567932 7.499999
v 13.789438 -25.567932 7.499999
v -0.957607 -24.674168 -7.500002
v 13.789434 -25.567932 -7.500005
v -0.957603 -24.674168 7.500002
v -0.957603 -24.674168 7.500002
v 0.063835 -16.247286 -7.500002
v -0.957607 -24.674168 -7.500002
v 0.063839 -16.247286 7.500002
v 0.063839 -16.247286 7.500002
v -18.194405 -17.268723 -7.499997
v 0.063835 -16.247286 -7.500002
v -18.194401 -17.268723 7.500006
v -18.194401 -17.268723 7.500006
v -23.173922 -4.692236 -7.499996
v -18.194405 -17.268723 -7.499997
v -23.173920 -4.692236 7.500008
vn -0.0000 -0.0000 1.0000
vn -0.0000 -0.0000 -1.0000
vn -0.4738 0.8806 -0.0000
vn 0.2698 0.9629 -0.0000
vn 0.5196 0.8544 -0.0000
vn 0.7504 -0.6610 -0.0000
vn -0.0935 0.9956 -0.0000
vn -0.9864 0.1644 -0.0000
vn 0.0543 0.9985 -0.0000
vn 0.9996 -0.0280 -0.0000
vn -0.0619 0.9981 -0.0000
vn 0.9976 -0.0688 -0.0000
vn 0.0238 -0.9997 -0.0000
vn 0.9991 -0.0419 -0.0000
vn -0.0605 -0.9982 -0.0000
vn -0.9927 0.1203 -0.0000
vn 0.0559 -0.9984 -0.0000
vn -0.9298 -0.3681 -0.0000
vn -0.9947 0.1031 -0.0000
vt 0.000000 1.000000
vt 0.000000 1.000000
vt 0.000000 1.000000
vt 0.000000 1.000000
vt 0.000000 1.000000
vt 0.000000 1.000000
vt 0.000000 1.000000
vt 0.000000 1.000000
vt 0.000000 1.000000
vt 0.000000 1.000000
vt 0.000000 1.000000
vt 0.000000 1.000000
vt 0.000000 1.000000
vt 0.000000 1.000000
vt 0.000000 1.000000
vt 0.000000 1.000000
vt 0.000000 1.000000
vt 0.000000 1.000000
vt 0.000000 1.000000
vt 0.000000 1.000000
vt 0.000000 1.000000
vt 0.000000 1.000000
vt 0.000000 1.000000
vt 0.000000 1.000000
vt 0.000000 1.000000
vt 0.000000 1.000000
vt 0.000000 1.000000
vt 0.000000 1.000000
vt 0.000000 1.000000
vt 0.000000 1.000000
vt 0.000000 1.000000
vt 0.000000 1.000000
vt 0.000000 1.000000
vt 0.000000 1.000000
vt 0.000000 1.000000
vt 0.000000 1.000000
vt 0.000000 1.000000
vt 0.000000 1.000000
vt 0.000000 1.000000
vt 0.000000 1.000000
vt 0.000000 1.000000
vt 0.000000 1.000000
vt 0.000000 1.000000
vt 0.000000 1.000000
vt 0.000000 1.000000
vt 0.000000 1.000000
vt 0.000000 1.000000
vt 0.000000 1.000000
vt 0.000000 1.000000
vt 0.000000 1.000000
vt 0.000000 1.000000
vt 0.000000 1.000000
vt 0.000000 1.000000
vt 0.000000 1.000000
vt 0.000000 1.000000
vt 0.000000 1.000000
vt 0.000000 1.000000
vt 0.000000 1.000000
vt 0.000000 1.000000
vt 0.000000 1.000000
vt 0.000000 1.000000
vt 0.000000 1.000000
vt 0.000000 1.000000
vt 0.000000 1.000000
vt 0.000000 1.000000
vt 0.000000 1.000000
vt 0.000000 1.000000
vt 0.000000 1.000000
vt 0.000000 1.000000
vt 0.000000 1.000000
vt 0.000000 1.000000
vt 0.000000 1.000000
vt 0.000000 1.000000
vt 0.000000 1.000000
vt 0.000000 1.000000
vt 0.000000 1.000000
vt 0.000000 1.000000
vt 0.000000 1.000000
vt 0.000000 1.000000
vt 0.000000 1.000000
vt 0.000000 1.000000
vt 0.000000 1.000000
vt 0.000000 1.000000
vt 0.000000 1.000000
vt 0.000000 1.000000
vt 0.000000 1.000000
vt 0.000000 1.000000
vt 0.000000 1.000000
vt 0.000000 1.000000
vt 0.000000 1.000000
s 0
usemtl material.002
f 1/1/1 2/2/1 3/3/1
f 2/2/1 4/4/1 5/5/1
f 6/6/1 7/7/1 8/8/1
f 6/6/1 9/9/1 7/7/1
f 9/9/1 10/10/1 11/11/1
f 12/12/1 13/13/1 14/14/1
f 12/12/1 15/15/1 13/13/1
f 15/15/1 1/1/1 16/16/1
f 1/1/1 4/4/1 2/2/1
f 6/6/1 10/10/1 9/9/1
f 6/6/1 12/12/1 10/10/1
f 12/12/1 1/1/1 15/15/1
f 4/4/1 12/12/1 6/6/1
f 1/1/1 12/12/1 4/4/1
f 17/17/2 18/18/2 19/19/2
f 20/20/2 21/21/2 18/18/2
f 22/22/2 23/23/2 24/24/2
f 23/23/2 25/25/2 24/24/2
f 26/26/2 27/27/2 25/25/2
f 28/28/2 29/29/2 30/30/2
f 29/29/2 31/31/2 30/30/2
f 32/32/2 19/19/2 31/31/2
f 18/18/2 21/21/2 19/19/2
f 25/25/2 27/27/2 24/24/2
f 27/27/2 30/30/2 24/24/2
f 31/31/2 19/19/2 30/30/2
f 24/24/2 30/30/2 21/21/2
f 21/21/2 30/30/2 19/19/2
s 1
f 33/33/3 34/34/4 35/35/3
f 33/33/3 36/36/4 34/34/4
f 36/36/4 37/37/5 34/34/4
f 36/36/4 38/38/5 37/37/5
s 0
f 39/39/6 40/40/6 41/41/6
f 39/39/6 42/42/6 40/40/6
f 43/43/7 44/44/7 45/45/7
f 43/43/7 46/46/7 44/44/7
f 47/47/8 48/48/8 49/49/8
f 47/47/8 50/50/8 48/48/8
f 51/51/9 52/52/9 53/53/9
f 51/51/9 54/54/9 52/52/9
f 55/55/10 56/56/10 57/57/10
f 55/55/10 58/58/10 56/56/10
f 59/59/11 60/60/11 61/61/11
f 59/59/11 62/62/11 60/60/11
f 63/63/12 64/64/12 65/65/12
f 63/63/12 66/66/12 64/64/12
f 67/67/13 68/68/13 69/69/13
f 67/67/13 70/70/13 68/68/13
f 71/71/14 72/72/14 73/73/14
f 71/71/14 74/74/14 72/72/14
f 75/75/15 76/76/15 77/77/15
f 75/75/15 78/78/15 76/76/15
f 79/79/16 80/80/16 81/81/16
f 79/79/16 82/82/16 80/80/16
f 83/83/17 84/84/17 85/85/17
f 83/83/17 86/86/17 84/84/17
s 1
f 87/87/18 88/88/19 89/89/18
f 87/87/18 90/90/19 88/88/19
f 90/90/19 35/35/3 88/88/19
f 90/90/19 33/33/3 35/35/3
