# Blender 3.4.1
# www.blender.org
mtllib 6.mtl
o Object_6.004
v -21.865204 -0.127672 7.500007
v -5.649845 -9.065279 7.500003
v -0.861837 26.302090 7.500002
v -3.032404 -3.766556 7.500002
v 2.457836 -2.234398 7.500001
v 3.351599 7.150084 7.500001
v 13.566002 17.428326 7.499999
v 21.865196 -8.107687 7.499997
v 13.629837 7.405439 7.499999
v -0.478809 -26.302084 7.500002
v 16.247272 -20.492647 7.499998
v -19.120089 -17.236797 7.500006
v 1.500233 -14.364001 7.500001
v 6.607435 -7.277761 7.500000
v -0.861841 26.302090 -7.500001
v -5.649849 -9.065279 -7.500000
v -21.865208 -0.127672 -7.499997
v -3.032408 -3.766556 -7.500001
v 2.457832 -2.234398 -7.500002
v 13.565998 17.428326 -7.500005
v 3.351595 7.150084 -7.500002
v 13.629833 7.405439 -7.500005
v 21.865192 -8.107687 -7.500007
v 16.247269 -20.492647 -7.500006
v -0.478813 -26.302084 -7.500001
v -19.120090 -17.236797 -7.499998
v 1.500229 -14.364001 -7.500002
v 6.607431 -7.277761 -7.500003
v -0.861837 26.302090 7.500002
v 13.565998 17.428326 -7.500005
v -0.861841 26.302090 -7.500001
v 13.566002 17.428326 7.499999
v 13.566002 17.428326 7.499999
v 3.351595 7.150084 -7.500002
v 13.565998 17.428326 -7.500005
v 3.351599 7.150084 7.500001
v 3.351599 7.150084 7.500001
v 13.629833 7.405439 -7.500005
v 3.351595 7.150084 -7.500002
v 13.629837 7.405439 7.499999
v 13.629837 7.405439 7.499999
v 21.865192 -8.107687 -7.500007
v 13.629833 7.405439 -7.500005
v 21.865196 -8.107687 7.499997
v 16.247269 -20.492647 -7.500006
v 16.247272 -20.492647 7.499998
v -0.478813 -26.302084 -7.500001
v -0.478809 -26.302084 7.500002
v -19.120090 -17.236797 -7.499998
v -19.120089 -17.236797 7.500006
v -21.865208 -0.127672 -7.499997
v -21.865204 -0.127672 7.500007
v -0.861841 26.302090 -7.500001
v -0.861837 26.302090 7.500002
v -5.649845 -9.065279 7.500003
v 1.500229 -14.364001 -7.500002
v -5.649849 -9.065279 -7.500000
v 1.500233 -14.364001 7.500001
v 1.500233 -14.364001 7.500001
v 6.607431 -7.277761 -7.500003
v 1.500229 -14.364001 -7.500002
v 6.607435 -7.277761 7.500000
v 6.607435 -7.277761 7.500000
v 2.457832 -2.234398 -7.500002
v 6.607431 -7.277761 -7.500003
v 2.457836 -2.234398 7.500001
v 2.457836 -2.234398 7.500001
v -3.032408 -3.766556 -7.500001
v 2.457832 -2.234398 -7.500002
v -3.032404 -3.766556 7.500002
v -5.649849 -9.065279 -7.500000
v -5.649845 -9.065279 7.500003
vn -0.0000 -0.0000 1.0000
vn -0.0000 -0.0000 -1.0000
vn 0.5239 0.8518 -0.0000
vn 0.7093 -0.7049 -0.0000
vn -0.0248 0.9997 -0.0000
vn 0.8833 0.4689 -0.0000
vn 0.9995 0.0311 -0.0000
vn 0.6740 -0.7387 -0.0000
vn -0.0591 -0.9983 -0.0000
vn -0.8029 -0.5961 -0.0000
vn -0.9674 0.2534 -0.0000
vn -0.7829 0.6222 -0.0000
vn 0.5954 0.8034 -0.0000
vn -0.8113 0.5847 -0.0000
vn -0.7722 -0.6354 -0.0000
vn 0.2688 -0.9632 -0.0000
vn 0.6381 -0.7699 -0.0000
vn 0.8966 -0.4429 -0.0000
vt 0.000000 1.000000
vt 0.000000 1.000000
vt 0.000000 1.000000
vt 0.000000 1.000000
vt 0.000000 1.000000
vt 0.000000 1.000000
vt 0.000000 1.000000
vt 0.000000 1.000000
vt 0.000000 1.000000
vt 0.000000 1.000000
vt 0.000000 1.000000
vt 0.000000 1.000000
vt 0.000000 1.000000
vt 0.000000 1.000000
vt 0.000000 1.000000
vt 0.000000 1.000000
vt 0.000000 1.000000
vt 0.000000 1.000000
vt 0.000000 1.000000
vt 0.000000 1.000000
vt 0.000000 1.000000
vt 0.000000 1.000000
vt 0.000000 1.000000
vt 0.000000 1.000000
vt 0.000000 1.000000
vt 0.000000 1.000000
vt 0.000000 1.000000
vt 0.000000 1.000000
vt 0.000000 1.000000
vt 0.000000 1.000000
vt 0.000000 1.000000
vt 0.000000 1.000000
vt 0.000000 1.000000
vt 0.000000 1.000000
vt 0.000000 1.000000
vt 0.000000 1.000000
vt 0.000000 1.000000
vt 0.000000 1.000000
vt 0.000000 1.000000
vt 0.000000 1.000000
vt 0.000000 1.000000
vt 0.000000 1.000000
vt 0.000000 1.000000
vt 0.000000 1.000000
vt 0.000000 1.000000
vt 0.000000 1.000000
vt 0.000000 1.000000
vt 0.000000 1.000000
vt 0.000000 1.000000
vt 0.000000 1.000000
vt 0.000000 1.000000
vt 0.000000 1.000000
vt 0.000000 1.000000
vt 0.000000 1.000000
vt 0.000000 1.000000
vt 0.000000 1.000000
vt 0.000000 1.000000
vt 0.000000 1.000000
vt 0.000000 1.000000
vt 0.000000 1.000000
vt 0.000000 1.000000
vt 0.000000 1.000000
vt 0.000000 1.000000
vt 0.000000 1.000000
vt 0.000000 1.000000
vt 0.000000 1.000000
vt 0.000000 1.000000
vt 0.000000 1.000000
vt 0.000000 1.000000
vt 0.000000 1.000000
vt 0.000000 1.000000
vt 0.000000 1.000000
s 0
usemtl material.004
f 1/1/1 2/2/1 3/3/1
f 4/4/1 3/3/1 2/2/1
f 5/5/1 3/3/1 4/4/1
f 3/3/1 6/6/1 7/7/1
f 5/5/1 6/6/1 3/3/1
f 6/6/1 8/8/1 9/9/1
f 8/8/1 10/10/1 11/11/1
f 10/10/1 1/1/1 12/12/1
f 1/1/1 13/13/1 2/2/1
f 14/14/1 6/6/1 5/5/1
f 14/14/1 8/8/1 6/6/1
f 10/10/1 13/13/1 1/1/1
f 10/10/1 14/14/1 13/13/1
f 10/10/1 8/8/1 14/14/1
f 15/15/2 16/16/2 17/17/2
f 16/16/2 15/15/2 18/18/2
f 18/18/2 15/15/2 19/19/2
f 20/20/2 21/21/2 15/15/2
f 15/15/2 21/21/2 19/19/2
f 22/22/2 23/23/2 21/21/2
f 24/24/2 25/25/2 23/23/2
f 26/26/2 17/17/2 25/25/2
f 16/16/2 27/27/2 17/17/2
f 19/19/2 21/21/2 28/28/2
f 21/21/2 23/23/2 28/28/2
f 17/17/2 27/27/2 25/25/2
f 27/27/2 28/28/2 25/25/2
f 28/28/2 23/23/2 25/25/2
f 29/29/3 30/30/3 31/31/3
f 29/29/3 32/32/3 30/30/3
f 33/33/4 34/34/4 35/35/4
f 33/33/4 36/36/4 34/34/4
f 37/37/5 38/38/5 39/39/5
f 37/37/5 40/40/5 38/38/5
s 1
f 41/41/6 42/42/7 43/43/6
f 41/41/6 44/44/7 42/42/7
f 44/44/7 45/45/8 42/42/7
f 44/44/7 46/46/8 45/45/8
f 46/46/8 47/47/9 45/45/8
f 46/46/8 48/48/9 47/47/9
f 48/48/9 49/49/10 47/47/9
f 48/48/9 50/50/10 49/49/10
f 50/50/10 51/51/11 49/49/10
f 50/50/10 52/52/11 51/51/11
f 52/52/11 53/53/12 51/51/11
f 52/52/11 54/54/12 53/53/12
s 0
f 55/55/13 56/56/13 57/57/13
f 55/55/13 58/58/13 56/56/13
f 59/59/14 60/60/14 61/61/14
f 59/59/14 62/62/14 60/60/14
f 63/63/15 64/64/15 65/65/15
f 63/63/15 66/66/15 64/64/15
s 1
f 67/67/16 68/68/17 69/69/16
f 67/67/16 70/70/17 68/68/17
f 70/70/17 71/71/18 68/68/17
f 70/70/17 72/72/18 71/71/18
