# Blender 3.4.1
# www.blender.org
mtllib 7.mtl
o Object_6.005
v 18.992405 23.269680 7.499998
v 11.714638 -5.266806 7.499999
v 23.014324 11.586956 7.499997
v -12.225366 -23.014324 7.500005
v 10.118633 -25.248732 7.500000
v 1.755602 9.288719 7.500001
v -18.928555 25.248730 7.500007
v -23.014318 9.671764 7.500008
v 23.014320 11.586956 -7.500008
v 11.714634 -5.266806 -7.500005
v 18.992401 23.269680 -7.500007
v 10.118629 -25.248732 -7.500004
v -12.225369 -23.014324 -7.499999
v -23.014322 9.671764 -7.499996
v -18.928558 25.248730 -7.499997
v 1.755598 9.288719 -7.500002
v 23.014324 11.586956 7.499997
v 11.714634 -5.266806 -7.500005
v 23.014320 11.586956 -7.500008
v 11.714638 -5.266806 7.499999
v 10.118629 -25.248732 -7.500004
v 10.118633 -25.248732 7.500000
v 10.118633 -25.248732 7.500000
v -12.225369 -23.014324 -7.499999
v 10.118629 -25.248732 -7.500004
v -12.225366 -23.014324 7.500005
v -12.225366 -23.014324 7.500005
v 1.755598 9.288719 -7.500002
v -12.225369 -23.014324 -7.499999
v 1.755602 9.288719 7.500001
v 1.755602 9.288719 7.500001
v -23.014322 9.671764 -7.499996
v 1.755598 9.288719 -7.500002
v -23.014318 9.671764 7.500008
v -23.014318 9.671764 7.500008
v -18.928558 25.248730 -7.499997
v -23.014322 9.671764 -7.499996
v -18.928555 25.248730 7.500007
v -18.928555 25.248730 7.500007
v 18.992401 23.269680 -7.500007
v -18.928558 25.248730 -7.499997
v 18.992405 23.269680 7.499998
v 18.992405 23.269680 7.499998
v 18.992401 23.269680 -7.500007
vn -0.0000 -0.0000 1.0000
vn -0.0000 -0.0000 -1.0000
vn 0.9916 -0.1292 -0.0000
vn 0.9444 -0.3289 -0.0000
vn 0.9968 -0.0796 -0.0000
vn -0.0995 -0.9950 -0.0000
vn -0.9177 0.3972 -0.0000
vn -0.0155 -0.9999 -0.0000
vn -0.9673 0.2537 -0.0000
vn 0.0521 0.9986 -0.0000
vn 0.9455 0.3255 -0.0000
vt 0.000000 1.000000
vt 0.000000 1.000000
vt 0.000000 1.000000
vt 0.000000 1.000000
vt 0.000000 1.000000
vt 0.000000 1.000000
vt 0.000000 1.000000
vt 0.000000 1.000000
vt 0.000000 1.000000
vt 0.000000 1.000000
vt 0.000000 1.000000
vt 0.000000 1.000000
vt 0.000000 1.000000
vt 0.000000 1.000000
vt 0.000000 1.000000
vt 0.000000 1.000000
vt 0.000000 1.000000
vt 0.000000 1.000000
vt 0.000000 1.000000
vt 0.000000 1.000000
vt 0.000000 1.000000
vt 0.000000 1.000000
vt 0.000000 1.000000
vt 0.000000 1.000000
vt 0.000000 1.000000
vt 0.000000 1.000000
vt 0.000000 1.000000
vt 0.000000 1.000000
vt 0.000000 1.000000
vt 0.000000 1.000000
vt 0.000000 1.000000
vt 0.000000 1.000000
vt 0.000000 1.000000
vt 0.000000 1.000000
vt 0.000000 1.000000
vt 0.000000 1.000000
vt 0.000000 1.000000
vt 0.000000 1.000000
vt 0.000000 1.000000
vt 0.000000 1.000000
vt 0.000000 1.000000
vt 0.000000 1.000000
vt 0.000000 1.000000
vt 0.000000 1.000000
s 0
usemtl material.005
f 1/1/1 2/2/1 3/3/1
f 2/2/1 4/4/1 5/5/1
f 6/6/1 7/7/1 8/8/1
f 6/6/1 1/1/1 7/7/1
f 1/1/1 4/4/1 2/2/1
f 1/1/1 6/6/1 4/4/1
f 9/9/2 10/10/2 11/11/2
f 12/12/2 13/13/2 10/10/2
f 14/14/2 15/15/2 16/16/2
f 15/15/2 11/11/2 16/16/2
f 10/10/2 13/13/2 11/11/2
f 13/13/2 16/16/2 11/11/2
s 1
f 17/17/3 18/18/4 19/19/3
f 17/17/3 20/20/4 18/18/4
f 20/20/4 21/21/5 18/18/4
f 20/20/4 22/22/5 21/21/5
s 0
f 23/23/6 24/24/6 25/25/6
f 23/23/6 26/26/6 24/24/6
f 27/27/7 28/28/7 29/29/7
f 27/27/7 30/30/7 28/28/7
f 31/31/8 32/32/8 33/33/8
f 31/31/8 34/34/8 32/32/8
f 35/35/9 36/36/9 37/37/9
f 35/35/9 38/38/9 36/36/9
f 39/39/10 40/40/10 41/41/10
f 39/39/10 42/42/10 40/40/10
s 1
f 43/43/11 19/19/3 44/44/11
f 43/43/11 17/17/3 19/19/3
